<svg width="245" height="80" viewBox="0 0 245 80" fill="none" xmlns="http://www.w3.org/2000/svg">
  <rect width="245" height="80" rx="10" fill="#FFFFFF"/>
  <circle cx="40" cy="40" r="25" fill="#005EB8"/>
  <path d="M40 15C26.2 15 15 26.2 15 40C15 53.8 26.2 65 40 65C53.8 65 65 53.8 65 40C65 26.2 53.8 15 40 15ZM40 60C29 60 20 51 20 40C20 29 29 20 40 20C51 20 60 29 60 40C60 51 51 60 40 60Z" fill="#FFFFFF"/>
  <path d="M40 25C31.7 25 25 31.7 25 40C25 48.3 31.7 55 40 55C48.3 55 55 48.3 55 40C55 31.7 48.3 25 40 25ZM40 50C34.5 50 30 45.5 30 40C30 34.5 34.5 30 40 30C45.5 30 50 34.5 50 40C50 45.5 45.5 50 40 50Z" fill="#FFD700"/>
  <text x="80" y="35" font-family="Arial" font-weight="bold" font-size="24" fill="#005EB8">PPRA</text>
  <text x="80" y="55" font-family="Arial" font-size="12" fill="#333333">Public Procurement Regulatory Authority</text>
</svg> 